<?xml version="1.0" encoding="UTF-8"?><svg width="48px" height="10px" viewBox="0 0 48 10" version="1.1" xmlns="http://www.w3.org/2000/svg" xmlns:xlink="http://www.w3.org/1999/xlink">
    <!-- Generator: Sketch 64 (93537) - https://sketch.com -->
    <title>Line 2</title>
    <desc>Created with Sketch.</desc>
    <g id="Page-1" stroke="none" stroke-width="1" fill="none" fill-rule="evenodd">
        <g id="Desktop-HD-Copy-4" transform="translate(-976.000000, -387.000000)" fill="#979797" fill-rule="nonzero">
            <g id="Group" transform="translate(241.000000, 246.000000)">
                <g id="login-strategy" transform="translate(0.000000, 104.000000)">
                    <g id="each-box" transform="translate(735.500000, 0.000000)">
                        <path id="Line-2" d="M9,37.5 L9,41.5 L11,41.5 L11,42.5 L9,42.5 L9,46.5 L0,42 L9,37.5 Z M47,41.5 L47,42.5 L44,42.5 L44,41.5 L47,41.5 Z M43,41.5 L43,42.5 L40,42.5 L40,41.5 L43,41.5 Z M39,41.5 L39,42.5 L36,42.5 L36,41.5 L39,41.5 Z M35,41.5 L35,42.5 L32,42.5 L32,41.5 L35,41.5 Z M31,41.5 L31,42.5 L28,42.5 L28,41.5 L31,41.5 Z M27,41.5 L27,42.5 L24,42.5 L24,41.5 L27,41.5 Z M23,41.5 L23,42.5 L20,42.5 L20,41.5 L23,41.5 Z M19,41.5 L19,42.5 L16,42.5 L16,41.5 L19,41.5 Z M15,41.5 L15,42.5 L12,42.5 L12,41.5 L15,41.5 Z"></path>
                    </g>
                </g>
            </g>
        </g>
    </g>
</svg>
