<?xml version="1.0" encoding="UTF-8"?>
<svg width="15px" height="19px" viewBox="0 0 15 19" version="1.1" xmlns="http://www.w3.org/2000/svg" xmlns:xlink="http://www.w3.org/1999/xlink">
    <!-- Generator: Sketch 50.2 (55047) - http://www.bohemiancoding.com/sketch -->
    <title>Delete Icon</title>
    <desc>Created with Sketch.</desc>
    <defs></defs>
    <g id="Desktop-App" stroke="none" stroke-width="1" fill="none" fill-rule="evenodd">
        <g id="Route-Plan-A-1.0" transform="translate(-1305.000000, -302.000000)" fill="#707070">
            <g id="Main-Content" transform="translate(281.000000, 120.000000)">
                <g id="Table">
                    <g id="Row-2" transform="translate(0.000000, 165.000000)">
                        <g id="Delete-Icon" transform="translate(1024.000000, 17.000000)">
                            <g>
                                <path d="M12.8436422,2.21861022 L9.96469649,2.21861022 C9.82111821,0.973370607 8.76153355,0.00273162939 7.47829073,0.00273162939 C6.19504792,0.00273162939 5.13565495,0.973370607 4.99207668,2.21861022 L2.1129393,2.21861022 C0.947779553,2.21861022 0,3.16677316 0,4.33174121 L0,4.44014377 C0,5.33046326 0.55428115,6.09253994 1.33528754,6.40308307 L1.33528754,16.3851757 C1.33528754,17.5503355 2.28330671,18.4983067 3.44822684,18.4983067 L11.5083546,18.4983067 C12.6734665,18.4983067 13.621246,17.5503355 13.621246,16.3851757 L13.621246,6.40308307 C14.4022524,6.09253994 14.9565815,5.33046326 14.9565815,4.44028754 L14.9565815,4.33174121 C14.9565815,3.16677316 14.008754,2.21861022 12.8436422,2.21861022 Z M7.47829073,1.00480831 C8.20816294,1.00480831 8.81731629,1.52803514 8.9521246,2.21861022 L6.00464856,2.21861022 C6.13940895,1.52803514 6.74875399,1.00480831 7.47829073,1.00480831 Z M12.6191693,16.3853674 C12.6191693,16.9979233 12.1208626,17.4964217 11.5083546,17.4964217 L3.44822684,17.4964217 C2.83591054,17.4964217 2.33736422,16.9979233 2.33736422,16.3853674 L2.33736422,6.55322684 L12.6191693,6.55322684 L12.6191693,16.3853674 Z M13.9545048,4.44014377 C13.9545048,5.05284345 13.4561502,5.55115016 12.8436422,5.55115016 L2.1129393,5.55115016 C1.50043131,5.55115016 1.00207668,5.05284345 1.00207668,4.44014377 L1.00207668,4.33174121 C1.00207668,3.71923323 1.50043131,3.2206869 2.1129393,3.2206869 L12.8436422,3.2206869 C13.4561502,3.2206869 13.9545048,3.71923323 13.9545048,4.33174121 L13.9545048,4.44014377 Z" id="Fill-1"></path>
                                <path d="M4.79194888,16.2146645 C5.06865815,16.2146645 5.29289137,15.9903834 5.29289137,15.713722 L5.29289137,10.0720447 C5.29289137,9.79538339 5.06865815,9.57091054 4.79194888,9.57091054 C4.51528754,9.57091054 4.2908147,9.79538339 4.2908147,10.0720447 L4.2908147,15.713722 C4.2908147,15.9903834 4.51528754,16.2146645 4.79194888,16.2146645 Z" id="Fill-2"></path>
                                <path d="M7.47829073,16.2146645 C7.75495208,16.2146645 7.97942492,15.9903834 7.97942492,15.713722 L7.97942492,10.0720447 C7.97942492,9.79538339 7.75495208,9.57091054 7.47829073,9.57091054 C7.20158147,9.57091054 6.97734824,9.79538339 6.97734824,10.0720447 L6.97734824,15.713722 C6.97734824,15.9903834 7.20158147,16.2146645 7.47829073,16.2146645 Z" id="Fill-3"></path>
                                <path d="M10.1646326,16.2146645 C10.4412939,16.2146645 10.6657668,15.9903834 10.6657668,15.713722 L10.6657668,10.0720447 C10.6657668,9.79538339 10.4412939,9.57091054 10.1646326,9.57091054 C9.88792332,9.57091054 9.66364217,9.79538339 9.66364217,10.0720447 L9.66364217,15.713722 C9.66364217,15.9903834 9.88792332,16.2146645 10.1646326,16.2146645 Z" id="Fill-4"></path>
                            </g>
                        </g>
                    </g>
                </g>
            </g>
        </g>
    </g>
</svg>