<?xml version="1.0"?>
<svg xmlns="http://www.w3.org/2000/svg" id="Layer_5" enable-background="new 0 0 64 64" height="512px" viewBox="0 0 64 64" width="512px"><g><path d="m51 39c-6.28 0-11.438 4.85-11.949 11h-8.051v-8h-14v-5h14v-16h4v10h20v-14.586l6.465-6.465c.99-.99 1.535-2.306 1.535-3.707 0-2.89-2.352-5.242-5.242-5.242-1.4 0-2.717.545-3.707 1.535l-8.465 8.465h-10.586v8h-4v-18h-21.414l-8.586 8.586v27.414h14v5h-14v18h30v-8h8.051c.511 6.15 5.669 11 11.949 11 6.617 0 12-5.383 12-12s-5.383-12-12-12zm-5.586-25 7.586-7.586 1.586 1.586-7.586 7.586zm-.977 1.851 3.712 3.712-4.198 1.399c-.462.156-.951-.209-.951-.683 0-.076.013-.156.036-.228zm5.563 2.735-1.586-1.586 7.586-7.586 1.586 1.586zm7.758-15.586c1.788 0 3.242 1.454 3.242 3.242 0 .866-.337 1.681-.949 2.293l-1.051 1.051-4.586-4.586 1.051-1.051c.612-.612 1.427-.949 2.293-.949zm-20.758 10h6.586l-.46.46-1.988 5.962c-.091.278-.138.566-.138.857 0 1.5 1.221 2.721 2.721 2.721.291 0 .579-.047.86-.14l5.959-1.986 2.46-2.46v10.586h-16zm-32.586-4 4.586-4.586v4.586zm2.586 2h4v-4h14v6h-18zm-4 0h2v4h22v-10h-16v-2h18v32h-26zm26 47h-26v-14h26zm22 3c-5.514 0-10-4.486-10-10s4.486-10 10-10 10 4.486 10 10-4.486 10-10 10z" data-original="#000000" class="active-path" data-old_color="#000000" fill="#FFFFFF"/><path d="m49 55.586-3.293-3.293-1.414 1.414 4.707 4.707 9.707-9.707-1.414-1.414z" data-original="#000000" class="active-path" data-old_color="#000000" fill="#FFFFFF"/><path d="m8 54c1.654 0 3-1.346 3-3s-1.346-3-3-3-3 1.346-3 3 1.346 3 3 3zm0-4c.552 0 1 .448 1 1s-.448 1-1 1-1-.448-1-1 .448-1 1-1z" data-original="#000000" class="active-path" data-old_color="#000000" fill="#FFFFFF"/><path d="m16 54c1.654 0 3-1.346 3-3s-1.346-3-3-3-3 1.346-3 3 1.346 3 3 3zm0-4c.552 0 1 .448 1 1s-.448 1-1 1-1-.448-1-1 .448-1 1-1z" data-original="#000000" class="active-path" data-old_color="#000000" fill="#FFFFFF"/><path d="m24 54c1.654 0 3-1.346 3-3s-1.346-3-3-3-3 1.346-3 3 1.346 3 3 3zm0-4c.552 0 1 .448 1 1s-.448 1-1 1-1-.448-1-1 .448-1 1-1z" data-original="#000000" class="active-path" data-old_color="#000000" fill="#FFFFFF"/><path d="m39 25h12v2h-12z" data-original="#000000" class="active-path" data-old_color="#000000" fill="#FFFFFF"/><path d="m5 17h2v2h-2z" data-original="#000000" class="active-path" data-old_color="#000000" fill="#FFFFFF"/><path d="m9 17h18v2h-18z" data-original="#000000" class="active-path" data-old_color="#000000" fill="#FFFFFF"/><path d="m5 21h22v2h-22z" data-original="#000000" class="active-path" data-old_color="#000000" fill="#FFFFFF"/><path d="m5 33h22v-8h-22zm2-6h18v4h-18z" data-original="#000000" class="active-path" data-old_color="#000000" fill="#FFFFFF"/></g> </svg>
